<svg width="234" height="31" viewBox="0 0 234 31" fill="none" xmlns="http://www.w3.org/2000/svg">
<path d="M57.6503 6.59443H51.943V14.175H57.6503C60.2154 14.175 61.9468 12.7575 61.9468 10.3539C61.9468 7.9503 60.2154 6.59443 57.6503 6.59443ZM62.1392 27.6103L56.7525 17.3181H51.943V27.6103H48.0954V3.2664H57.9068C62.7164 3.2664 65.7945 6.22465 65.7945 10.4155C65.9227 13.4354 63.8065 16.1471 60.7284 16.8867L66.564 27.672H62.1392V27.6103ZM78.6199 15.161C77.7221 13.2505 75.3494 12.4493 73.3615 13.3121C72.5278 13.6819 71.8224 14.3598 71.4377 15.161C71.117 15.9006 70.9246 16.7018 70.9888 17.503H79.1329C79.1329 16.7018 79.0047 15.9006 78.6199 15.161ZM70.9888 19.9682C70.9888 22.9264 72.6561 24.837 75.6059 24.837C77.2732 24.8986 78.8764 24.2823 79.9666 23.0497L82.2751 25.1451C80.5437 26.994 78.1069 27.9801 75.5418 27.8569C70.9888 27.8569 67.3976 25.5765 67.3976 18.9821C67.3976 13.3738 70.4116 10.1074 75.0288 10.1074C79.9024 10.1074 82.724 13.497 82.724 18.4274V19.9682H70.9888ZM95.1647 15.161C94.8756 14.4816 94.3758 13.9042 93.7333 13.5072C93.0909 13.1103 92.3368 12.913 91.5736 12.9423C90.0345 12.8807 88.5596 13.7435 87.9825 15.161C87.6618 15.9006 87.4694 16.7018 87.5336 17.503H95.6777C95.6777 16.7018 95.4853 15.9006 95.1647 15.161ZM87.5336 19.9682C87.5336 22.9264 89.2009 24.837 92.1507 24.837C93.818 24.9602 95.4212 24.2823 96.5114 23.0497L98.82 25.1451C97.0885 26.994 94.5876 27.9801 92.0225 27.8569C87.4694 27.8569 83.8783 25.5765 83.8783 18.9821C83.8783 13.3738 86.8923 10.1074 91.5095 10.1074C96.3831 10.1074 99.1406 13.497 99.1406 18.4274V19.9682H87.5336ZM107.926 13.1889C104.656 13.1889 104.143 15.839 104.143 18.9205C104.143 22.002 104.656 24.7137 107.926 24.7137C111.196 24.7137 111.645 22.002 111.645 18.9205C111.645 15.839 111.261 13.1889 107.926 13.1889ZM111.774 27.6103V25.7614C110.619 27.1789 108.824 27.9185 107.028 27.7952C105.425 27.8569 103.822 27.3022 102.603 26.2545C100.808 24.5288 100.551 21.5089 100.551 18.9205C100.551 16.332 100.744 13.3738 102.603 11.5865C103.822 10.5388 105.361 9.98409 106.964 10.0457C108.888 10.0457 110.363 10.4771 111.71 12.0179V3.2664H115.365V27.672H111.774V27.6103ZM124.471 27.6103V3.2664H140.695V6.59443H128.318V13.6819H138.899V16.9483H128.318V24.2823H140.695V27.6103H124.471ZM147.749 27.6103C144.286 27.6103 142.811 25.3917 142.811 22.8032V3.2664H146.466V22.6183C146.466 23.9742 146.979 24.6521 148.454 24.6521H150.058V27.6103H147.749ZM158.202 27.8569C155.252 27.8569 152.751 27.3638 150.635 25.3917L153.007 23.1113C154.418 24.3439 156.278 25.0219 158.202 24.8986C160.382 24.8986 162.178 24.159 162.178 22.495C162.178 21.3241 161.472 20.5845 159.741 20.4612L156.855 20.2147C153.456 19.9066 151.532 18.4891 151.532 15.4076C151.532 12.0179 154.546 10.1074 158.33 10.1074C161.023 10.1074 163.332 10.662 164.999 12.0795L162.691 14.2982C161.408 13.3738 159.805 12.9423 158.202 13.004C156.021 13.004 154.931 13.9284 154.931 15.2227C154.931 16.2704 155.508 17.0716 157.432 17.1948L160.254 17.4414C163.653 17.7495 165.64 19.2903 165.64 22.3718C165.64 26.008 162.434 27.8569 158.138 27.8569H158.202ZM177.76 15.161C177.471 14.4816 176.972 13.9042 176.329 13.5072C175.687 13.1103 174.933 12.913 174.169 12.9423C172.63 12.8807 171.155 13.7435 170.578 15.161C170.258 15.9006 170.065 16.7018 170.129 17.503H178.273C178.273 16.7018 178.145 15.9006 177.76 15.161ZM170.129 19.9682C170.129 22.9264 171.797 24.837 174.747 24.837C176.414 24.8986 178.017 24.2823 179.107 23.0497L181.48 25.1451C179.748 26.994 177.247 27.9801 174.747 27.8569C170.193 27.8569 166.602 25.5765 166.602 18.9821C166.602 13.3738 169.616 10.1074 174.298 10.1074C179.107 10.1074 181.929 13.497 181.929 18.4274V19.9682H170.129ZM191.035 27.6103H188.021L181.416 10.2922H185.263L189.56 22.495L193.792 10.2922H197.64L191.035 27.6103ZM202.385 27.6103H198.73V10.2922H202.385V27.6103ZM198.602 6.84095V3.14314H202.449V6.84095H198.602ZM215.147 15.161C214.569 13.8052 213.159 12.8807 211.62 12.9423C210.081 12.8807 208.606 13.7435 208.029 15.161C207.708 15.9006 207.515 16.7018 207.58 17.503H215.724C215.66 16.7018 215.531 15.9006 215.147 15.161ZM207.515 19.9682C207.515 22.9264 209.119 24.837 212.133 24.837C213.8 24.8986 215.403 24.2823 216.493 23.0497L218.802 25.1451C217.07 26.994 214.569 27.9801 212.004 27.8569C207.451 27.8569 203.86 25.5765 203.86 18.9821C203.86 13.3738 206.874 10.1074 211.491 10.1074C216.301 10.1074 219.123 13.497 219.123 18.4274V19.9682H207.515ZM231.307 14.3598C230.665 13.6203 229.639 13.1889 228.613 13.1889C226.625 13.1889 225.022 14.7296 225.022 17.0716V27.6103H221.367V10.2922H224.894V12.2028C226.048 10.8469 227.844 10.0457 229.703 10.1074C231.307 10.0457 232.91 10.662 234 11.7714L231.307 14.3598ZM14.2362 14.9145C21.7391 14.9145 30.781 13.2505 30.781 6.5328C30.781 1.78728 25.5867 0 20.7772 0C13.4667 0 0 3.75944 0 17.1948C0 23.9125 5.51494 27.7952 14.2362 27.7952C23.4705 27.7952 30.2039 22.1869 32.256 14.668C26.8052 23.3579 19.9435 26.0696 14.3004 26.0696C7.3105 26.0696 4.61716 21.2624 4.61716 17.0716C4.68128 5.36183 14.5569 1.35586 20.7772 1.35586C25.0096 1.35586 27.4464 3.8827 27.4464 6.65606C27.4464 14.2366 15.647 14.0517 10.2603 14.0517H7.69526L6.54097 15.161C9.87558 15.5308 13.0819 16.4553 16.0959 17.8728C23.7912 21.5089 31.0375 31 40.5925 31C44.0554 31 44.9531 30.0139 45.5944 29.1511C40.9131 31.9245 33.0255 27.1173 28.7931 23.3579C25.3944 20.2147 22.3163 16.7634 14.2362 14.9145Z" fill="white"/>
</svg>
