<svg width="235" height="47" viewBox="0 0 235 47" fill="none" xmlns="http://www.w3.org/2000/svg">
<path d="M144.99 19.8729L132.039 7.74964V7.66562C131.251 6.96705 130.209 6.58646 129.131 6.6041C128.054 6.62174 127.025 7.03624 126.263 7.76017C125.501 8.48411 125.065 9.4609 125.046 10.4845C125.028 11.5082 125.428 12.4987 126.164 13.2471L126.252 13.3191L139.014 25.6105H145.053V19.8729H144.99Z" fill="white"/>
<path d="M147.054 33.3215L159.923 45.3879L160.011 45.4715C160.787 46.2066 161.838 46.6189 162.934 46.6178C164.03 46.6167 165.08 46.2022 165.854 45.4655C166.628 44.7288 167.062 43.7303 167.061 42.6896C167.06 41.6489 166.624 40.6513 165.848 39.9162L165.772 39.8445L153.067 27.6108H147.054V33.3215Z" fill="white"/>
<path d="M153.067 25.6105L165.853 13.3191L165.941 13.2471C166.678 12.4987 167.079 11.5082 167.061 10.4845C167.042 9.4609 166.605 8.48411 165.841 7.76017C165.078 7.03624 164.048 6.62174 162.968 6.6041C161.889 6.58646 160.844 6.96705 160.055 7.66562L159.979 7.74964L147.054 19.8729V25.6105H153.067Z" fill="white"/>
<path d="M138.993 27.6228L126.335 39.8309L126.247 39.9025C125.473 40.6447 125.041 41.6488 125.046 42.6939C125.048 43.2114 125.158 43.7234 125.368 44.2007C125.578 44.678 125.885 45.1111 126.272 45.4755C126.658 45.8399 127.116 46.1283 127.62 46.3243C128.123 46.5203 128.662 46.62 129.207 46.6178C130.305 46.6133 131.357 46.1938 132.131 45.4516L132.206 45.3681L145.053 33.3271V27.6108H139.044L138.993 27.6228Z" fill="white"/>
<path d="M33.4746 41.1856L31.9794 20.7041C31.8064 18.3391 31.6952 16.3524 31.6952 14.3066C31.2257 16.518 30.8797 17.8542 30.1877 20.2193L23.8487 41.1856H17.003L11.2941 21.0826C10.7751 19.2023 10.0584 16.5062 9.67539 14.2948C9.67539 16.5653 9.56418 18.8239 9.39118 21.189L8.00722 41.1856H0L3.70705 2.85973H14.025L19.2643 22.0522C19.8373 24.0495 20.2993 26.0745 20.6482 28.1186C21.0306 26.0184 21.5256 23.9383 22.1311 21.8867L27.5433 2.85973H37.7995L41.3706 41.1856H33.4746ZM68.5433 42.6165C66.7922 41.9643 65.3271 40.7583 64.3914 39.199C63.8394 39.7389 63.2445 40.2371 62.612 40.6889C60.8441 41.7774 58.7688 42.3183 56.6684 42.2381C50.1069 42.2381 46.5358 39.0334 46.5358 33.4164C46.5358 26.7942 51.3179 23.7078 60.709 23.7078H62.439V22.5252C62.439 19.3797 61.7964 18.3273 58.9791 18.3273C56.5077 18.3273 53.6162 19.5098 50.4529 21.5319L47.166 16.2342C48.679 15.304 50.28 14.5122 51.9481 13.8691C54.4879 12.7856 57.2363 12.2217 60.0171 12.2136C64.9598 12.2136 68.3703 13.9755 69.5194 17.1211C70.0429 18.7623 70.2194 20.4869 70.0384 22.1941L69.8654 31.6544C69.8654 34.7408 70.0384 36.0652 72.6334 37.9455L68.5433 42.6165ZM61.9694 28.8281C56.6189 28.8281 54.7654 29.7742 54.7654 33.1326C54.7159 33.5927 54.7662 34.0577 54.9133 34.4983C55.0603 34.939 55.3009 35.3458 55.6199 35.6933C55.939 36.0408 56.3296 36.3215 56.7673 36.5178C57.205 36.7141 57.6803 36.8217 58.1635 36.8339C58.9411 36.798 59.7022 36.6069 60.3981 36.2729C61.0939 35.9389 61.7091 35.4694 62.2042 34.8945L62.3154 28.8281H61.9694ZM86.4977 41.8478C82.5806 41.8478 79.4667 40.1923 78.5523 37.709C78.0514 36.3116 77.8744 34.8267 78.0333 33.3573V17.9843H75.0924V12.9586H78.0333C77.9711 10.7279 78.066 8.49571 78.3175 6.27725L86.1517 4.40885C85.85 7.24964 85.6974 10.1031 85.6945 12.9586H92.602L90.6496 18.0316H85.7069V32.222C85.7069 35.7696 86.3989 36.7393 89.0432 36.7393C89.9875 36.68 90.9189 36.497 91.8111 36.1953L92.7873 40.6062C90.7974 41.4146 88.6595 41.8366 86.4977 41.8478ZM110.631 19.4034C109.947 19.0277 109.169 18.8395 108.382 18.8594C107.46 18.8916 106.558 19.1207 105.741 19.53C104.925 19.9392 104.214 20.5182 103.661 21.2245V41.1856H95.9383V22.3242C96.049 19.5267 95.6817 16.7307 94.8509 14.0465L101.758 12.2845C102.496 13.5124 102.92 14.8903 102.994 16.3051C104.662 14.1529 107.035 12.2845 109.914 12.2845C110.911 12.251 111.901 12.4584 112.793 12.8876L110.631 19.4034ZM118.749 9.75389C118.124 9.7508 117.506 9.62997 116.93 9.3983C116.354 9.16664 115.832 8.82868 115.392 8.40372C114.953 7.97876 114.605 7.47512 114.369 6.92156C114.133 6.36801 114.013 5.77537 114.016 5.17749C114.029 3.95737 114.546 2.79165 115.453 1.93441C116.361 1.07717 117.585 0.597906 118.86 0.60109C119.484 0.602602 120.102 0.722528 120.677 0.95393C121.253 1.18533 121.774 1.52361 122.212 1.94921C122.65 2.3748 122.995 2.87925 123.228 3.43338C123.461 3.98751 123.576 4.58031 123.568 5.17749C123.57 5.78192 123.446 6.38064 123.204 6.93891C122.962 7.49719 122.606 8.0039 122.158 8.42964C121.71 8.85538 121.178 9.19168 120.592 9.419C120.007 9.64633 119.381 9.76016 118.749 9.75389ZM114.918 41.1856V13.4434L122.641 12.2609V41.1856H114.918ZM173.119 9.75389C172.495 9.7508 171.877 9.62989 171.302 9.39808C170.727 9.16627 170.205 8.82812 169.767 8.403C169.328 7.97789 168.982 7.47416 168.747 6.92067C168.512 6.36718 168.394 5.77481 168.399 5.17749C168.408 3.95845 168.922 2.79271 169.828 1.93514C170.733 1.07757 171.956 0.597928 173.23 0.60109C173.854 0.602602 174.472 0.722528 175.047 0.95393C175.622 1.18533 176.144 1.52361 176.582 1.94921C177.02 2.3748 177.365 2.87925 177.598 3.43338C177.831 3.98751 177.946 4.58031 177.938 5.17749C177.94 5.78192 177.816 6.38064 177.574 6.93891C177.332 7.49719 176.976 8.0039 176.528 8.42964C176.08 8.85538 175.548 9.19168 174.962 9.419C174.377 9.64633 173.751 9.76016 173.119 9.75389ZM169.288 41.1856V13.4434L176.999 12.2609V41.1856H169.288ZM203.023 42.6165C201.271 41.9643 199.806 40.7583 198.871 39.199C198.321 39.7417 197.726 40.2401 197.091 40.6889C195.323 41.7774 193.248 42.3183 191.148 42.2381C184.586 42.2381 181.015 39.0334 181.015 33.4164C181.015 26.7942 185.797 23.7078 195.188 23.7078H196.918V22.5252C196.918 19.3797 196.276 18.3273 193.458 18.3273C190.987 18.3273 188.095 19.5098 184.932 21.5319L181.645 16.317C183.158 15.3868 184.759 14.595 186.427 13.9519C188.967 12.8684 191.715 12.3045 194.496 12.2963C199.439 12.2963 202.85 14.0583 203.999 17.2038C204.522 18.8451 204.699 20.5697 204.518 22.2769L204.345 31.7372C204.345 34.8236 204.518 36.148 207.113 38.0283L203.023 42.6165ZM196.473 28.8281C191.123 28.8281 189.282 29.7742 189.282 33.1326C189.23 33.593 189.279 34.0587 189.426 34.5001C189.572 34.9416 189.812 35.3491 190.132 35.697C190.451 36.0449 190.843 36.3256 191.281 36.5213C191.72 36.717 192.196 36.8234 192.68 36.8339C193.451 36.7931 194.205 36.5997 194.894 36.2659C195.583 35.9321 196.193 35.4651 196.683 34.8945L196.795 28.8281H196.473ZM226.476 41.1856V22.8209C226.476 19.628 225.895 18.682 223.881 18.682C221.843 18.9198 219.951 19.8168 218.518 21.2245V41.1856H210.795V20.7041C210.832 18.4571 210.482 16.2196 209.757 14.082L216.615 12.2136C217.298 13.2845 217.677 14.5072 217.715 15.7612C218.803 14.9995 219.938 14.3006 221.113 13.6681C222.764 12.8968 224.576 12.4925 226.414 12.4855C229.701 12.4855 232.592 14.1293 233.507 16.5653C233.943 17.8629 234.135 19.2241 234.075 20.5859V41.1856H226.476Z" fill="white"/>
</svg>
