<?xml version="1.0" standalone="no"?>
<!DOCTYPE svg PUBLIC "-//W3C//DTD SVG 20010904//EN"
 "http://www.w3.org/TR/2001/REC-SVG-20010904/DTD/svg10.dtd">
<svg version="1.0" xmlns="http://www.w3.org/2000/svg"
 width="90.000000pt" height="90.000000pt" viewBox="0 0 90.000000 90.000000"
 preserveAspectRatio="xMidYMid meet">
<metadata>
Created by potrace 1.14, written by Peter Selinger 2001-2017
</metadata>
<g transform="translate(0.000000,90.000000) scale(0.100000,-0.100000)"
fill="#000000" stroke="none">
<path d="M433 829 c-11 -11 -35 -23 -53 -26 -19 -2 -53 -14 -77 -25 -40 -19
-43 -19 -72 -2 -25 15 -35 16 -55 6 -15 -6 -26 -8 -26 -3 0 5 -13 11 -28 13
l-29 4 9 -45 c4 -25 6 -52 3 -59 -2 -7 1 -24 7 -37 17 -37 -7 -152 -38 -185
-23 -25 -23 -26 -5 -42 25 -21 54 -123 47 -162 -3 -17 -8 -55 -11 -84 -2 -29
-7 -57 -10 -62 -7 -11 122 -11 150 0 14 5 41 1 75 -11 30 -10 62 -19 72 -19
10 0 26 -9 35 -20 22 -25 34 -25 56 0 9 11 26 20 37 20 11 0 42 9 70 19 50 19
66 21 85 9 6 -3 40 -6 76 -6 l66 0 -9 50 c-5 28 -7 52 -4 55 2 3 -1 18 -8 34
-10 24 -10 41 3 92 9 34 24 71 34 81 22 25 21 29 -3 51 -11 10 -20 30 -20 44
-1 14 -7 40 -14 56 -9 21 -10 39 -4 60 5 17 11 46 13 65 1 19 5 47 8 63 4 24
1 27 -24 27 -16 0 -29 -5 -29 -11 0 -5 -4 -7 -10 -4 -21 13 -53 14 -73 1 -25
-14 -30 -14 -70 2 -16 7 -50 17 -75 24 -26 6 -54 19 -63 29 -15 17 -16 17 -36
-2z"/>
</g>
</svg>
