<svg width="109" height="46" viewBox="0 0 109 46" fill="none" xmlns="http://www.w3.org/2000/svg">
<rect width="109" height="46" rx="5" fill="#313131"/>
<path d="M63.3563 19.3408C62.2177 17.9131 60.6175 17.0845 59.1063 17.0845C57.1113 17.0845 56.2674 18.0396 54.8814 18.0396C53.4522 18.0396 52.3664 17.0872 50.6411 17.0872C48.9464 17.0872 47.1419 18.123 45.9977 19.8942C44.3892 22.3883 44.6644 27.0776 47.2711 31.0717C48.204 32.5009 49.4497 34.1081 51.079 34.122C52.5291 34.1359 52.9378 33.1919 54.9022 33.1821C56.8666 33.171 57.2392 34.1345 58.6865 34.1192C60.3172 34.1067 61.631 32.3258 62.5639 30.8966C63.2326 29.872 63.4814 29.3562 64 28.1995C60.2283 26.7634 59.6235 21.3998 63.3563 19.3408Z" fill="white"/>
<path d="M58.6701 11.8779C57.4842 11.96 56.0981 12.719 55.2904 13.7075C54.5535 14.6042 53.9474 15.9361 54.1837 17.2304C55.4794 17.2707 56.8182 16.4936 57.594 15.4884C58.3197 14.5528 58.8689 13.2293 58.6701 11.8779Z" fill="white"/>
</svg>
