<svg width="102" height="46" viewBox="0 0 102 46" fill="none" xmlns="http://www.w3.org/2000/svg">
<rect width="102" height="46" rx="5" fill="#3B5998"/>
<path d="M56.5481 11.8618L53.6699 11.8571C50.4362 11.8571 48.3465 14.0098 48.3465 17.3417V19.8704H45.4526C45.2025 19.8704 45 20.074 45 20.3251V23.9889C45 24.24 45.2027 24.4434 45.4526 24.4434H48.3465V33.6884C48.3465 33.9395 48.549 34.1429 48.7991 34.1429H52.5749C52.825 34.1429 53.0275 33.9393 53.0275 33.6884V24.4434H56.4112C56.6613 24.4434 56.8638 24.24 56.8638 23.9889L56.8652 20.3251C56.8652 20.2045 56.8174 20.0891 56.7326 20.0037C56.6479 19.9184 56.5324 19.8704 56.4123 19.8704H53.0275V17.7268C53.0275 16.6965 53.272 16.1734 54.6087 16.1734L56.5477 16.1727C56.7975 16.1727 57 15.9692 57 15.7183V12.3162C57 12.0656 56.7977 11.8622 56.5481 11.8618Z" fill="white"/>
</svg>
