<svg width="113" height="46" viewBox="0 0 113 46" fill="none" xmlns="http://www.w3.org/2000/svg">
<rect width="113" height="46" rx="5" fill="#DA3D29"/>
<path d="M68 23C68 22.2775 67.9322 21.5543 67.798 20.8522C67.7374 20.5343 67.4591 20.3047 67.136 20.3047H56.5449C56.1725 20.3047 55.8711 20.606 55.8711 20.9785V25.0215C55.8711 25.3939 56.1725 25.6953 56.5449 25.6953H61.979C61.6404 26.3807 61.1738 26.9754 60.6259 27.4758L64.4344 31.2842C66.6257 29.1965 68 26.2586 68 23Z" fill="white"/>
<path d="M56.5005 16.8906C57.8225 16.8906 59.08 17.3105 60.1368 18.1054C60.4039 18.3061 60.781 18.2817 61.0179 18.0428L63.8935 15.1672C64.0271 15.0336 64.0988 14.85 64.0903 14.6612C64.0817 14.4723 63.9948 14.2959 63.8501 14.1742C61.7924 12.4496 59.182 11.5 56.5005 11.5C52.5541 11.5 49.0678 13.5059 47.0068 16.5516L50.9621 20.5068C51.9057 18.3813 54.0288 16.8906 56.5005 16.8906Z" fill="white"/>
<path d="M56.5005 34.5C59.0729 34.5 61.4416 33.6375 63.3557 32.2006L59.4757 28.3206C58.5889 28.82 57.5752 29.1094 56.5005 29.1094C54.0288 29.1094 51.9057 27.6187 50.9621 25.4932L47.0068 29.4484C49.0678 32.4941 52.5541 34.5 56.5005 34.5Z" fill="white"/>
<path d="M50.4887 23.9706C50.4371 23.6526 50.3906 23.3323 50.3906 23C50.3906 22.6677 50.4371 22.3475 50.4887 22.0295L46.2605 17.8013C45.4605 19.3636 45 21.1275 45 23C45 24.8725 45.4605 26.6364 46.2606 28.1987L50.4887 23.9706Z" fill="white"/>
</svg>
