<svg width="25" height="25" viewBox="0 0 25 25" fill="none" xmlns="http://www.w3.org/2000/svg">
<g clip-path="url(#clip0_910_748)">
<path d="M21.1012 0.405273H3.99564C2.04165 0.405273 0.45166 1.99526 0.45166 3.94925V21.0548C0.45166 23.0088 2.04165 24.5988 3.99564 24.5988H21.1012C23.0552 24.5988 24.6452 23.0088 24.6452 21.0548V3.94925C24.6452 1.99526 23.0552 0.405273 21.1012 0.405273ZM12.5957 18.834C9.07811 18.834 6.21653 15.9724 6.21653 12.4548C6.21653 8.93721 9.07811 6.07564 12.5957 6.07564C16.1133 6.07564 18.9748 8.93721 18.9748 12.4548C18.9748 15.9724 16.1133 18.834 12.5957 18.834ZM19.6836 7.49323C18.5112 7.49323 17.5573 6.53931 17.5573 5.36684C17.5573 4.19438 18.5112 3.24046 19.6836 3.24046C20.8561 3.24046 21.81 4.19438 21.81 5.36684C21.81 6.53931 20.8561 7.49323 19.6836 7.49323Z" fill="#FCD08B"/>
<path d="M19.6845 4.65771C19.2934 4.65771 18.9757 4.97538 18.9757 5.36651C18.9757 5.75764 19.2934 6.07531 19.6845 6.07531C20.0756 6.07531 20.3933 5.75764 20.3933 5.36651C20.3933 4.97538 20.0756 4.65771 19.6845 4.65771Z" fill="#FCD08B"/>
<path d="M12.5957 7.49329C9.86022 7.49329 7.63416 9.71935 7.63416 12.4549C7.63416 15.1904 9.86022 17.4164 12.5957 17.4164C15.3312 17.4164 17.5573 15.1904 17.5573 12.4549C17.5573 9.71935 15.3312 7.49329 12.5957 7.49329Z" fill="#FCD08B"/>
</g>
<defs>
<clipPath id="clip0_910_748">
<rect width="24.1936" height="24.1936" fill="white" transform="translate(0.45166 0.405273)"/>
</clipPath>
</defs>
</svg>
