<svg width="34" height="27" viewBox="0 0 34 27" fill="none" xmlns="http://www.w3.org/2000/svg">
<path d="M33.3871 3.3633C32.1635 3.88789 30.8597 4.2356 29.5004 4.40444C30.8988 3.58841 31.9661 2.30607 32.4679 0.760441C31.1641 1.52019 29.7246 2.05684 28.1905 2.35632C26.9525 1.06796 25.188 0.27002 23.2632 0.27002C19.5287 0.27002 16.5222 3.23265 16.5222 6.86459C16.5222 7.38717 16.5674 7.88965 16.6784 8.36801C11.0705 8.10069 6.10828 5.47372 2.77477 1.47196C2.1928 2.45883 1.85143 3.58841 1.85143 4.80441C1.85143 7.08769 3.05445 9.11168 4.84768 10.2835C3.76393 10.2634 2.70074 9.95585 1.80002 9.47146C1.80002 9.49156 1.80002 9.51769 1.80002 9.54382C1.80002 12.7476 4.1382 15.4088 7.20437 16.0218C6.6553 16.1685 6.05687 16.2389 5.43582 16.2389C5.00397 16.2389 4.568 16.2148 4.15877 16.1263C5.03276 18.7372 7.51284 20.6567 10.4618 20.719C8.16679 22.4737 5.2528 23.5309 2.0982 23.5309C1.54502 23.5309 1.01445 23.5068 0.483887 23.4404C3.47191 25.3237 7.01312 26.3991 10.832 26.3991C23.2447 26.3991 30.031 16.3494 30.031 7.63841C30.031 7.34697 30.0207 7.06558 30.0063 6.7862C31.3451 5.85761 32.4699 4.69789 33.3871 3.3633Z" fill="#FCD08B"/>
</svg>
