<svg width="157" height="50" viewBox="0 0 157 50" fill="none" xmlns="http://www.w3.org/2000/svg">
<path d="M156.644 34.8257C155.965 35.5478 155.411 36.4559 154.583 36.9546C152.711 38.086 150.817 37.4657 149.149 35.3915C142.215 38.1778 136.271 37.0092 132.466 32.1138C130.765 29.9168 129.886 27.243 129.966 24.5167C130.047 21.7905 131.084 19.168 132.913 17.0655C134.851 14.8536 137.555 13.3696 140.54 12.8795C143.525 12.3894 146.596 12.9252 149.203 14.3908C151.217 12.4059 152.833 11.927 154.638 13.0485C155.458 13.5571 155.993 14.4776 156.657 15.2121L156.644 34.8257ZM136.718 24.9159C136.749 26.4205 137.401 27.8531 138.534 28.9046C139.667 29.956 141.19 30.5419 142.774 30.5358C146.051 30.5135 148.82 27.9082 148.801 24.8589C148.783 21.8095 146.004 19.1671 142.782 19.1522C141.174 19.1568 139.635 19.7656 138.498 20.8456C137.362 21.9256 136.722 23.3889 136.718 24.9159ZM107.087 36.7214V43.8175C107.087 44.4378 107.111 45.0581 107.087 45.6784C106.972 47.7998 105.332 49.2811 103.1 49.3059C100.867 49.3307 99.117 47.8618 98.9734 45.8C98.882 44.4825 98.9316 43.1526 98.929 41.8301C98.929 33.6422 98.9525 25.4544 98.9107 17.2665C98.9107 15.4329 99.3181 13.8747 101.133 12.984C102.865 12.1305 104.468 12.4356 105.972 13.6117C106.207 13.7928 106.845 13.6663 107.218 13.5125C115.026 10.2869 124.039 14.567 125.747 22.3951C126.77 27.0845 125.439 31.2156 121.712 34.4511C117.91 37.7535 113.42 38.5773 108.485 37.1481C108.101 37.0266 107.735 36.9099 107.087 36.7214ZM112.747 19.105C111.91 19.0975 111.08 19.2473 110.304 19.5459C109.529 19.8445 108.823 20.2859 108.228 20.8447C107.633 21.4035 107.16 22.0687 106.836 22.8019C106.513 23.5351 106.345 24.3219 106.343 25.1169C106.337 26.3106 106.704 27.4791 107.397 28.4748C108.09 29.4705 109.078 30.2488 110.236 30.7114C111.395 31.1739 112.671 31.3 113.905 31.0737C115.138 30.8473 116.274 30.2787 117.167 29.4397C118.061 28.6007 118.673 27.5289 118.926 26.3596C119.179 25.1903 119.061 23.9761 118.588 22.8703C118.115 21.7644 117.308 20.8165 116.268 20.1464C115.228 19.4763 114.003 19.1139 112.747 19.105ZM74.8873 36.7214C74.8873 39.8055 74.916 42.696 74.8742 45.5866C74.877 46.3588 74.6233 47.1121 74.1492 47.7393C73.6752 48.3666 73.005 48.8358 72.234 49.0801C70.5783 49.5763 68.933 49.3878 67.844 48.038C67.1946 47.2269 66.8202 46.2473 66.7707 45.2293C66.6923 35.6793 66.7263 26.1243 66.7211 16.5792C66.7211 14.9516 67.387 13.6812 68.9408 12.9368C70.4947 12.1925 72.106 12.3215 73.4431 13.4182C74.1326 13.9814 74.6183 13.6514 75.2007 13.4182C82.9673 10.3663 91.6533 14.5074 93.4552 22.1966C94.5808 26.9803 93.2463 31.1536 89.4361 34.4561C85.6259 37.7585 81.215 38.5351 76.3419 37.1556C75.9215 37.0414 75.5167 36.9174 74.8873 36.7214ZM80.4107 31.1189C81.6625 31.1243 82.8879 30.7768 83.9318 30.1203C84.9757 29.4639 85.7912 28.5281 86.2751 27.4312C86.7591 26.3343 86.8897 25.1257 86.6505 23.9582C86.4113 22.7908 85.813 21.717 84.9313 20.8727C84.0495 20.0284 82.9241 19.4516 81.6972 19.2152C80.4704 18.9787 79.1973 19.0933 78.039 19.5445C76.8807 19.9957 75.8893 20.7631 75.1903 21.7497C74.4912 22.7363 74.1158 23.8978 74.1117 25.0871C74.1012 28.3276 77.0026 31.1065 80.4107 31.1288V31.1189ZM34.7482 17.197V4.16341C34.7534 1.63757 36.3856 0 38.8613 0C41.337 0 42.9379 1.69464 42.9379 4.20063C42.9379 12.2694 42.9562 20.3283 42.9222 28.407C42.9222 29.4639 43.1233 30.1438 44.2933 30.5879C46.2023 31.3323 47.0406 33.2849 46.4608 35.1111C46.1901 36.0144 45.5889 36.7964 44.7655 37.3162C43.9421 37.8361 42.9505 38.0598 41.969 37.9471C37.6052 37.4955 34.7925 34.523 34.756 30.2306C34.7168 25.8861 34.7482 21.5415 34.7482 17.197ZM20.2359 25.1889L26.6733 30.7938C28.692 32.553 28.9453 34.9945 27.287 36.7114C25.6287 38.4284 23.0564 38.3912 21.0194 36.6345C17.7967 33.8655 14.5759 31.0949 11.3567 28.3226C9.2675 26.5213 9.24922 23.9731 11.328 22.1544C14.5837 19.3027 17.8542 16.4618 21.1395 13.6316C23.0746 11.9667 25.6914 12.0238 27.3131 13.7134C28.9349 15.4031 28.726 17.7801 26.8352 19.4598C24.6833 21.3703 22.487 23.2387 20.2359 25.1889ZM51.9007 25.107C51.9007 22.2561 51.885 19.4003 51.9007 16.5544C51.9163 14.1055 53.6321 12.4629 56.1183 12.4778C58.5156 12.4902 60.2131 14.1427 60.221 16.537C60.2366 22.2834 60.2366 28.0282 60.221 33.7712C60.221 36.2053 58.4164 37.9892 56.0686 37.9719C53.6582 37.9446 51.9137 36.2127 51.8902 33.7861C51.8876 30.8931 51.9007 28 51.9007 25.107ZM0.116718 9.98424C0.116718 8.08366 0.0906025 6.18308 0.116718 4.27754C0.174171 1.63013 1.78548 0 4.26382 0C6.80483 0.0124059 8.44226 1.73682 8.45793 4.38423C8.45793 8.26975 8.4736 12.1553 8.45793 16.0457C8.47481 16.8784 8.21059 17.6942 7.70398 18.3738C7.19737 19.0534 6.47499 19.5609 5.6427 19.8221C3.95827 20.3456 2.02052 19.9213 1.07776 18.5592C0.538045 17.7286 0.222301 16.7843 0.158502 15.81C0.0227028 13.8772 0.119329 11.927 0.116718 9.98424Z" fill="white"/>
<path d="M7.59264 33.7653C7.59264 36.0639 6.1321 37.5366 3.83802 37.5342C1.65459 37.5342 0.0956942 36.0018 0.0858589 33.8465C0.0760236 31.6911 1.73573 30.0084 3.88228 30.0275C6.02883 30.0466 7.58772 31.6076 7.59264 33.7653Z" fill="white"/>
</svg>
