<svg width="125" height="46" viewBox="0 0 125 46" fill="none" xmlns="http://www.w3.org/2000/svg">
<path d="M125 0H0.0213973V4.13402H125V0ZM125 41.8958H0.0213973V46H125V41.8958ZM120.553 22.9463C120.553 19.3618 120.175 17.1693 117.542 17.1693H115.339V28.6753H117.542C120.175 28.6753 120.553 26.4888 120.553 22.8925V22.9463ZM125 22.8925C125 28.4602 123.285 32.6182 117.542 32.6182H111.38C111.326 32.6217 111.271 32.6133 111.221 32.5935C111.17 32.5737 111.123 32.543 111.085 32.5035C111.046 32.4639 111.017 32.4164 110.997 32.3641C110.978 32.3118 110.97 32.2558 110.973 32.2V13.6088C110.97 13.553 110.978 13.497 110.997 13.4448C111.017 13.3925 111.046 13.345 111.085 13.3053C111.123 13.2658 111.17 13.2351 111.221 13.2153C111.271 13.1955 111.326 13.1872 111.38 13.1907H117.542C123.285 13.1907 125 17.3725 125 22.9163V22.8925ZM102.068 29.1114V32.2239C102.071 32.2797 102.063 32.3356 102.044 32.388C102.025 32.4403 101.995 32.4878 101.956 32.5273C101.918 32.5669 101.871 32.5976 101.821 32.6174C101.77 32.6371 101.715 32.6456 101.661 32.6421H89.8083C89.754 32.6456 89.6996 32.6371 89.6487 32.6174C89.5978 32.5976 89.5515 32.5669 89.513 32.5273C89.4745 32.4878 89.4446 32.4403 89.4254 32.388C89.4062 32.3356 89.398 32.2797 89.4015 32.2239V13.6088C89.398 13.553 89.4062 13.497 89.4254 13.4448C89.4446 13.3925 89.4745 13.345 89.513 13.3053C89.5515 13.2658 89.5978 13.2351 89.6487 13.2153C89.6996 13.1955 89.754 13.1872 89.8083 13.1907H101.638C101.692 13.1872 101.746 13.1955 101.797 13.2153C101.848 13.2351 101.894 13.2658 101.933 13.3053C101.971 13.345 102.001 13.3925 102.021 13.4448C102.04 13.497 102.048 13.553 102.045 13.6088V16.7272C102.048 16.783 102.04 16.839 102.021 16.8913C102.001 16.9437 101.971 16.9912 101.933 17.0307C101.894 17.0704 101.848 17.1009 101.797 17.1207C101.746 17.1406 101.692 17.1489 101.638 17.1454H93.7728V20.9091H100.975C101.029 20.9056 101.084 20.914 101.135 20.9337C101.186 20.9536 101.232 20.9842 101.27 21.0237C101.309 21.0634 101.339 21.1109 101.358 21.1632C101.377 21.2156 101.385 21.2714 101.382 21.3272V24.4398C101.385 24.4956 101.377 24.5514 101.358 24.6038C101.339 24.6561 101.309 24.7036 101.27 24.7432C101.232 24.7828 101.186 24.8134 101.135 24.8333C101.084 24.8531 101.029 24.8614 100.975 24.8579H93.7728V28.7351H101.667C101.72 28.7296 101.774 28.7363 101.825 28.7547C101.876 28.7731 101.922 28.8027 101.96 28.8415C101.998 28.8803 102.028 28.9273 102.046 28.979C102.065 29.0308 102.072 29.0863 102.068 29.1412V29.1114ZM80.6936 27.1281C80.6936 31.3098 78.2579 33.1021 73.4913 33.1021C69.0444 33.1021 66.8587 31.5488 66.5158 27.6598C66.5042 27.603 66.5056 27.5442 66.5194 27.488C66.5332 27.4318 66.5594 27.3796 66.5957 27.3352C66.6321 27.2909 66.6779 27.2556 66.7295 27.2321C66.7811 27.2088 66.8373 27.1976 66.8936 27.1998H70.1488C70.3931 27.1998 70.4861 27.3551 70.5558 27.5761C70.9104 28.5737 71.7707 29.0637 73.4623 29.0637C75.2759 29.0637 76.3978 28.5379 76.3978 27.2714C76.3978 26.0049 75.9909 25.2881 73.3692 24.7563C70.0152 24.0753 66.7716 22.6475 66.7716 18.7286C66.7716 15.1442 68.8933 12.9337 73.3692 12.9337C77.357 12.9337 79.7636 14.487 80.1007 18.2388C80.1136 18.2978 80.1136 18.3591 80.1007 18.4183C80.0879 18.4775 80.0625 18.5329 80.0265 18.5808C79.9904 18.6288 79.9445 18.6679 79.892 18.6955C79.8395 18.7231 79.7817 18.7384 79.7228 18.7405H76.7524C76.5083 18.7405 76.4153 18.5433 76.3456 18.3223C76.0898 17.5158 75.2353 16.9363 73.4798 16.9363C71.8695 16.9363 71.0615 17.701 71.0615 18.7286C71.0615 19.559 71.0092 20.4252 73.4158 20.8972C76.9617 21.5723 80.7053 22.8507 80.7053 27.1161L80.6936 27.1281ZM49.356 22.3728H52.2042C53.8378 22.3728 54.4771 22.08 54.4771 19.7502C54.4771 17.4202 53.8436 17.1395 52.2042 17.1395H49.356V22.3728ZM58.4474 32.6421H55.0933C54.9911 32.6501 54.8891 32.6226 54.8038 32.5641C54.7185 32.5057 54.6546 32.4196 54.6225 32.3195L52.0415 26.3454H49.3502V32.2477C49.3536 32.3036 49.3453 32.3595 49.3261 32.4118C49.3069 32.4642 49.277 32.5117 49.2386 32.5512C49.2 32.5909 49.1539 32.6215 49.1029 32.6412C49.052 32.661 48.9975 32.6694 48.9432 32.666H45.3624C45.3077 32.6693 45.2527 32.6609 45.2012 32.6412C45.1498 32.6216 45.1028 32.5911 45.0635 32.5517C45.0241 32.5124 44.9931 32.4651 44.9725 32.4127C44.952 32.3604 44.9421 32.3042 44.944 32.2477V13.6088C44.9421 13.5525 44.952 13.4963 44.9725 13.4439C44.9931 13.3916 45.0241 13.3442 45.0635 13.3049C45.1028 13.2655 45.1498 13.2351 45.2012 13.2154C45.2527 13.1958 45.3077 13.1873 45.3624 13.1907H52.1753C57.2848 13.1907 58.6217 15.5802 58.6217 19.7621C58.6217 22.6774 57.9707 24.7086 55.8781 25.6763L58.7323 32.1463C58.8602 32.4449 58.7323 32.6421 58.4241 32.6421H58.4474ZM35.992 29.1114V32.2239C35.9954 32.2797 35.9871 32.3356 35.9679 32.388C35.9487 32.4403 35.9189 32.4878 35.8803 32.5273C35.8419 32.5669 35.7956 32.5976 35.7448 32.6174C35.6939 32.6371 35.6394 32.6456 35.585 32.6421H23.7324C23.6781 32.6456 23.6237 32.6371 23.5728 32.6174C23.5219 32.5976 23.4756 32.5669 23.4372 32.5273C23.3987 32.4878 23.3689 32.4403 23.3495 32.388C23.3303 32.3356 23.3222 32.2797 23.3256 32.2239V13.6088C23.3222 13.553 23.3303 13.497 23.3495 13.4448C23.3689 13.3925 23.3987 13.345 23.4372 13.3053C23.4756 13.2658 23.5219 13.2351 23.5728 13.2153C23.6237 13.1955 23.6781 13.1872 23.7324 13.1907H35.5618C35.6161 13.1872 35.6706 13.1955 35.7215 13.2153C35.7724 13.2351 35.8186 13.2658 35.8571 13.3053C35.8956 13.345 35.9254 13.3925 35.9446 13.4448C35.964 13.497 35.9721 13.553 35.9687 13.6088V16.7272C35.9721 16.783 35.964 16.839 35.9446 16.8913C35.9254 16.9437 35.8956 16.9912 35.8571 17.0307C35.8186 17.0704 35.7724 17.1009 35.7215 17.1207C35.6706 17.1406 35.6161 17.1489 35.5618 17.1454H27.6911V20.9091H34.8991C34.9535 20.9056 35.0079 20.914 35.0587 20.9337C35.1096 20.9536 35.156 20.9842 35.1944 21.0237C35.2329 21.0634 35.2628 21.1109 35.282 21.1632C35.3012 21.2156 35.3094 21.2714 35.3061 21.3272V24.4398C35.3094 24.4956 35.3012 24.5514 35.282 24.6038C35.2628 24.6561 35.2329 24.7036 35.1944 24.7432C35.156 24.7828 35.1096 24.8134 35.0587 24.8333C35.0079 24.8531 34.9535 24.8614 34.8991 24.8579H27.6911V28.7351H35.585C35.6387 28.7297 35.6929 28.7364 35.744 28.7548C35.7949 28.7732 35.8412 28.8027 35.88 28.8414C35.9187 28.88 35.9487 28.9269 35.9681 28.9786C35.9874 29.0305 35.9956 29.0859 35.992 29.1412V29.1114ZM11.1241 13.1907H14.7573C15.0537 13.1907 15.1351 13.3877 15.0828 13.6626L10.7289 32.3016C10.7021 32.4035 10.6416 32.4927 10.5578 32.5537C10.474 32.6147 10.3721 32.644 10.2696 32.6361H4.83453C4.73207 32.644 4.63017 32.6147 4.54636 32.5537C4.46254 32.4927 4.40206 32.4035 4.37531 32.3016L0.0213973 13.6626C-0.0483579 13.3877 0.0504631 13.1907 0.346923 13.1907H3.9684C4.07192 13.1764 4.17688 13.2029 4.26211 13.265C4.34733 13.3271 4.40648 13.4201 4.42762 13.5252L7.33409 27.9704H7.741L10.6475 13.5252C10.6686 13.4201 10.7278 13.3271 10.813 13.265C10.8982 13.2029 11.0032 13.1764 11.1067 13.1907" fill="white"/>
</svg>
