<svg width="207" height="35" viewBox="0 0 207 35" fill="none" xmlns="http://www.w3.org/2000/svg">
<path d="M0.0858154 0.226482H4.96391L12.401 18.9623L19.6782 0.226482H24.5563V34.6253H19.6782V12.3672L14.2403 27.3558H10.4018L4.96391 12.3672V34.7002H0.0858154V0.226482ZM35.1121 0.226482H41.6696L48.6268 34.6253H43.4289L41.9894 27.206H35.4319L36.0717 24.2832C36.3117 23.234 36.8714 22.7094 37.831 22.7094H41.1098L38.3108 8.24538L33.1129 34.6253H27.9149L35.1121 0.226482ZM52.2254 0.226482H56.9436L65.5003 21.5102V0.226482H70.4583V34.6253H66.0601L57.1835 12.5921V34.7002H52.2254V0.226482ZM75.5764 27.8804L75.4964 24.7328H80.8543L80.9341 28.1052C80.9341 29.6791 82.1337 30.5035 83.8131 30.5035H84.8527C86.612 30.5035 87.7315 29.6791 87.7315 28.1052V24.8077C87.7315 21.5852 85.7323 21.0606 81.414 18.7375C75.9762 16.1144 75.5764 14.4657 75.5764 10.7935V7.12124C75.5764 2.39982 78.775 -0.0732889 83.2533 0.00165411H84.8527C89.3309 0.00165411 92.7696 2.39982 92.7696 7.12124V10.044C92.7696 11.0183 92.1299 11.5429 91.0102 11.6928L87.4916 12.3672V6.82146C87.4916 5.24767 86.292 4.42329 84.6127 4.42329H83.5732C81.8139 4.42329 80.8543 5.24767 80.8543 6.82146V10.7935C80.8543 13.0417 82.0538 13.7912 83.7331 14.7654L88.2113 16.8638C92.4497 18.8124 93.0095 21.0606 93.0095 24.2832V27.8804C93.0095 32.6019 89.6508 35 85.0925 35H83.4932C78.935 34.9251 75.5764 32.527 75.5764 27.8804ZM98.0476 27.8804V7.12124C98.0476 2.39982 101.166 -0.0732889 105.725 0.00165411H107.324C111.802 0.00165411 115.001 2.175 115.001 6.82146V10.4187C115.001 11.393 114.361 11.9176 113.242 12.0675L109.723 12.8169V6.82146C109.723 5.24767 108.763 4.42329 107.004 4.42329H105.964C104.205 4.42329 103.325 5.24767 103.325 6.82146V28.1802C103.325 29.7541 104.205 30.5784 105.964 30.5784H107.004C108.763 30.5784 109.723 29.7541 109.723 28.1802V24.7328H115.081L115.001 27.8055C115.001 32.5268 111.882 34.9251 107.324 34.9251H105.725C101.166 34.9251 98.0476 32.527 98.0476 27.8804ZM124.997 0.226482H131.554L138.512 34.6253H133.314L131.874 27.206H125.317L125.957 24.2832C126.196 23.234 126.676 22.7094 127.716 22.7094H130.995L128.196 8.24538L122.998 34.6253H117.8L124.997 0.226482ZM142.19 0.226482H151.946C156.425 0.15154 159.623 2.54972 159.623 7.34607V15.8147C159.623 20.536 156.505 23.0092 151.946 22.8593H148.268V20.0864C148.268 18.7375 148.748 18.3626 150.107 18.3626H151.627C153.386 18.3626 154.265 17.5383 154.265 15.9645V7.0463C154.265 5.47249 153.386 4.64812 151.627 4.64812H147.548V34.7002H142.19V0.226482ZM164.581 0.226482H179.456V4.94789H169.779V29.9039H179.376V34.6253H164.502L164.581 0.226482ZM170.579 16.4142C170.579 15.0651 171.058 14.6904 172.419 14.6904H178.577V19.4119H170.579V16.4142ZM184.493 0.226482H194.249C198.728 0.15154 201.928 2.54972 201.928 7.34607V27.6556C201.928 32.377 198.807 34.8501 194.249 34.7752H184.493V0.226482ZM193.93 30.2037C195.689 30.2037 196.57 29.3794 196.57 27.8055V7.0463C196.57 5.47249 195.689 4.64812 193.93 4.64812H189.851V30.2786H193.93V30.2037ZM202.567 0.451312H201.847V0.226482H203.607V0.451312H202.886V2.54972H202.567V0.451312ZM203.846 0.226482H204.246L204.965 2.02511L205.686 0.226482H206.086V2.54972H205.765V0.601198L204.965 2.54972H204.886L204.007 0.601198V2.54972H203.766L203.846 0.226482Z" fill="white"/>
</svg>
