<svg width="164" height="35" viewBox="0 0 164 35" fill="none" xmlns="http://www.w3.org/2000/svg">
<path d="M15.5047 0.208747V1.28728C14.158 1.42644 13.2481 1.63519 12.7022 1.87873C12.1562 2.12226 11.8651 2.67894 11.8651 3.51391C11.8651 3.89662 11.9379 4.27933 12.047 4.62724C12.1562 4.97514 12.3382 5.49701 12.6294 6.19285L20.7456 24.8409L27.6246 8.3499C27.952 7.54971 28.2433 6.67992 28.5344 5.81014C28.8255 4.90557 28.9711 4.24454 28.9711 3.79225C28.9711 2.85289 28.498 2.15705 27.5882 1.73956C27.0058 1.49602 26.2414 1.35686 25.2587 1.28728V0.208747H35.9955V1.28728C34.758 1.39165 33.8482 1.77436 33.3023 2.50497C32.7563 3.2008 31.9556 4.80119 30.9001 7.34095L19.8358 33.7823C19.6174 34.2346 19.4718 34.5478 19.3262 34.7217C19.1807 34.8957 19.0351 35 18.8167 35C18.5619 35 18.3436 34.8609 18.1616 34.5825C17.9796 34.3042 17.7976 33.9563 17.5792 33.5387L5.82336 6.61034C4.87706 4.41849 3.85796 2.95725 2.80249 2.15705C2.14737 1.70477 1.23746 1.42644 0 1.28728V0.208747H15.5047ZM50.1535 0.104374V23.5884C50.1535 25.2584 50.4083 26.5806 50.8815 27.5895C51.8277 29.4334 53.6112 30.3728 56.1589 30.3728C57.9059 30.3728 59.6165 29.8161 61.3271 28.7376C62.2735 28.1461 63.2561 27.2764 64.2388 26.1978V6.08848C64.2388 4.17496 63.8384 2.95725 63.074 2.36581C62.3098 1.77436 60.7813 1.42644 58.4883 1.28728V0.0695828H70.7537V26.1978C70.7537 27.7982 71.0448 28.9116 71.6635 29.5377C72.2823 30.1641 73.5561 30.4075 75.4851 30.338V31.4165C74.1021 31.7644 73.083 32.0427 72.4279 32.2166C71.7728 32.3906 70.6808 32.7387 69.1522 33.1908C68.4971 33.3996 67.0776 33.9215 64.8575 34.7564C64.7119 34.7564 64.6755 34.6869 64.6392 34.5825C64.6028 34.4781 64.6028 34.339 64.6028 34.1651V28.1461C62.8557 30.1292 61.2544 31.5905 59.7985 32.5647C57.6148 34.0258 55.2855 34.7564 52.8469 34.7564C50.6268 34.7564 48.5158 33.9911 46.514 32.495C44.5123 30.999 43.4932 28.494 43.4932 24.9802V5.9493C43.4932 4.00099 43.0928 2.67894 42.2193 2.01789C41.6733 1.6004 40.5087 1.32207 38.7252 1.14811V0.0695828H50.1535V0.104374ZM84.111 4.94036C87.2774 1.63519 91.3537 0 96.34 0C101.29 0 105.403 1.56561 108.678 4.69683C111.918 7.82803 113.555 11.9682 113.555 17.1869C113.555 21.9532 111.99 26.1282 108.824 29.6422C105.657 33.156 101.581 34.9303 96.5584 34.9303C91.7541 34.9303 87.6778 33.2257 84.3293 29.851C80.9809 26.4761 79.343 22.1968 79.343 17.0825C79.343 12.2813 80.9082 8.24553 84.111 4.94036ZM90.0799 3.93141C87.5685 6.12327 86.2947 9.9155 86.2947 15.2734C86.2947 19.5527 87.3138 23.5536 89.352 27.2416C91.3901 30.9641 94.1927 32.8081 97.7959 32.8081C100.635 32.8081 102.782 31.5557 104.311 29.0855C105.839 26.6152 106.604 23.345 106.604 19.344C106.604 15.169 105.621 11.2724 103.692 7.5845C101.763 3.89662 98.9241 2.05268 95.2482 2.05268C93.2463 2.05268 91.5357 2.67894 90.0799 3.93141ZM117.34 33.5387C119.706 33.3648 121.271 32.9473 122.035 32.3211C122.8 31.7296 123.2 30.4423 123.2 28.4592V11.7942C123.2 9.39363 122.945 7.65408 122.472 6.61034C121.999 5.56661 121.126 5.04472 119.852 5.04472C119.597 5.04472 119.233 5.07951 118.833 5.14911C118.396 5.21869 117.959 5.28827 117.486 5.39264V4.20975C118.942 3.72267 120.47 3.23559 121.999 2.74852C123.564 2.22665 124.62 1.87873 125.238 1.63519C126.512 1.1829 127.859 0.661035 129.242 0.0695828C129.424 0.0695828 129.533 0.139165 129.569 0.278331C129.606 0.417496 129.642 0.695825 129.642 1.11332V7.20179C131.244 5.00994 132.809 3.27038 134.301 2.05268C135.793 0.83499 137.358 0.208747 138.96 0.208747C140.234 0.208747 141.289 0.591451 142.09 1.35686C142.89 2.12226 143.291 3.06163 143.291 4.20975C143.291 5.21869 143 6.08848 142.381 6.7843C141.762 7.48011 140.998 7.82803 140.052 7.82803C139.105 7.82803 138.159 7.41053 137.176 6.54075C136.23 5.67098 135.466 5.25348 134.92 5.25348C134.046 5.25348 132.991 5.9493 131.68 7.30616C130.407 8.69781 129.751 10.1243 129.751 11.5855V28.0765C129.751 30.164 130.261 31.5905 131.316 32.3906C132.336 33.1908 134.082 33.5736 136.485 33.5387V34.7217H117.34V33.5387ZM157.849 0.208747C158.177 0.104374 158.14 0.556661 158.14 0.765408V27.1024C158.14 29.8856 158.504 31.6253 159.196 32.3211C159.924 33.0169 161.489 33.4691 164 33.6779V34.7564H145.292V33.6779C148.059 33.4344 149.769 32.9821 150.497 32.3559C151.225 31.6948 151.553 29.9901 151.553 27.1372V9.39363C151.553 7.82803 151.443 6.71472 151.225 6.12327C150.825 5.11432 150.06 4.62724 148.823 4.62724C148.532 4.62724 148.277 4.66203 148.022 4.69683C147.767 4.73162 147.003 4.94035 145.729 5.28827V3.86183C145.729 3.82704 151.225 2.19186 157.849 0.208747Z" fill="white"/>
</svg>
